<svg width="270" height="80" viewBox="0 0 270 80" fill="none" xmlns="http://www.w3.org/2000/svg">
<path d="M139.376 39.72C141.328 40.136 142.896 41.112 144.08 42.648C145.264 44.152 145.856 45.88 145.856 47.832C145.856 50.648 144.864 52.888 142.88 54.552C140.928 56.184 138.192 57 134.672 57H118.976V23.304H134.144C137.568 23.304 140.24 24.088 142.16 25.656C144.112 27.224 145.088 29.352 145.088 32.04C145.088 34.024 144.56 35.672 143.504 36.984C142.48 38.296 141.104 39.208 139.376 39.72ZM127.184 36.936H132.56C133.904 36.936 134.928 36.648 135.632 36.072C136.368 35.464 136.736 34.584 136.736 33.432C136.736 32.28 136.368 31.4 135.632 30.792C134.928 30.184 133.904 29.88 132.56 29.88H127.184V36.936ZM133.232 50.376C134.608 50.376 135.664 50.072 136.4 49.464C137.168 48.824 137.552 47.912 137.552 46.728C137.552 45.544 137.152 44.616 136.352 43.944C135.584 43.272 134.512 42.936 133.136 42.936H127.184V50.376H133.232ZM154.745 27.432C153.305 27.432 152.121 27.016 151.193 26.184C150.297 25.32 149.849 24.264 149.849 23.016C149.849 21.736 150.297 20.68 151.193 19.848C152.121 18.984 153.305 18.552 154.745 18.552C156.153 18.552 157.305 18.984 158.201 19.848C159.129 20.68 159.593 21.736 159.593 23.016C159.593 24.264 159.129 25.32 158.201 26.184C157.305 27.016 156.153 27.432 154.745 27.432ZM158.825 30.216V57H150.617V30.216H158.825ZM172.981 21.48V57H164.773V21.48H172.981ZM187.137 21.48V57H178.929V21.48H187.137ZM197.213 27.432C195.773 27.432 194.589 27.016 193.661 26.184C192.765 25.32 192.317 24.264 192.317 23.016C192.317 21.736 192.765 20.68 193.661 19.848C194.589 18.984 195.773 18.552 197.213 18.552C198.621 18.552 199.773 18.984 200.669 19.848C201.597 20.68 202.061 21.736 202.061 23.016C202.061 24.264 201.597 25.32 200.669 26.184C199.773 27.016 198.621 27.432 197.213 27.432ZM201.293 30.216V57H193.085V30.216H201.293ZM223.562 29.928C226.698 29.928 229.194 30.952 231.05 33C232.938 35.016 233.882 37.8 233.882 41.352V57H225.722V42.456C225.722 40.664 225.258 39.272 224.33 38.28C223.402 37.288 222.154 36.792 220.586 36.792C219.018 36.792 217.77 37.288 216.842 38.28C215.914 39.272 215.45 40.664 215.45 42.456V57H207.242V30.216H215.45V33.768C216.282 32.584 217.402 31.656 218.81 30.984C220.218 30.28 221.802 29.928 223.562 29.928ZM249.761 29.832C251.649 29.832 253.297 30.216 254.705 30.984C256.145 31.752 257.249 32.76 258.017 34.008V30.216H266.225V56.952C266.225 59.416 265.729 61.64 264.737 63.624C263.777 65.64 262.289 67.24 260.273 68.424C258.289 69.608 255.809 70.2 252.833 70.2C248.865 70.2 245.649 69.256 243.185 67.368C240.721 65.512 239.313 62.984 238.961 59.784H247.073C247.329 60.808 247.937 61.608 248.897 62.184C249.857 62.792 251.041 63.096 252.449 63.096C254.145 63.096 255.489 62.6 256.481 61.608C257.505 60.648 258.017 59.096 258.017 56.952V53.16C257.217 54.408 256.113 55.432 254.705 56.232C253.297 57 251.649 57.384 249.761 57.384C247.553 57.384 245.553 56.824 243.761 55.704C241.969 54.552 240.545 52.936 239.489 50.856C238.465 48.744 237.953 46.312 237.953 43.56C237.953 40.808 238.465 38.392 239.489 36.312C240.545 34.232 241.969 32.632 243.761 31.512C245.553 30.392 247.553 29.832 249.761 29.832ZM258.017 43.608C258.017 41.56 257.441 39.944 256.289 38.76C255.169 37.576 253.793 36.984 252.161 36.984C250.529 36.984 249.137 37.576 247.985 38.76C246.865 39.912 246.305 41.512 246.305 43.56C246.305 45.608 246.865 47.24 247.985 48.456C249.137 49.64 250.529 50.232 252.161 50.232C253.793 50.232 255.169 49.64 256.289 48.456C257.441 47.272 258.017 45.656 258.017 43.608Z" fill="#F5F6FA"/>
<g clip-path="url(#clip0)">
<path d="M80 48.8889C80 51.2464 79.0635 53.5073 77.3965 55.1743C75.7295 56.8413 73.4686 57.7778 71.1111 57.7778H8.88889C6.53141 57.7778 4.27049 56.8413 2.6035 55.1743C0.936505 53.5073 0 51.2464 0 48.8889V8.88889C0 6.53141 0.936505 4.27049 2.6035 2.6035C4.27049 0.936505 6.53141 0 8.88889 0L71.1111 0C73.4686 0 75.7295 0.936505 77.3965 2.6035C79.0635 4.27049 80 6.53141 80 8.88889V48.8889Z" fill="#CCD6DD"/>
<path d="M8.88867 8.88892H71.1109V48.8889H8.88867V8.88892Z" fill="#5DADEC"/>
<path d="M28.8887 57.7778H51.1109V71.1112H28.8887V57.7778Z" fill="#CCD6DD"/>
<path d="M28.8887 57.7778H51.1109V62.2223H28.8887V57.7778Z" fill="#9AAAB4"/>
<path d="M80 73.3334C80 71.5653 79.2976 69.8696 78.0474 68.6194C76.7971 67.3691 75.1014 66.6667 73.3333 66.6667H6.66667C4.89856 66.6667 3.20286 67.3691 1.95262 68.6194C0.702379 69.8696 0 71.5653 0 73.3334C0 75.1015 0.702379 76.7972 1.95262 78.0475C3.20286 79.2977 4.89856 80.0001 6.66667 80.0001H73.3333C75.1014 80.0001 76.7971 79.2977 78.0474 78.0475C79.2976 76.7972 80 75.1015 80 73.3334Z" fill="#E1E8ED"/>
<path d="M6.6665 71.1111H11.1109V75.5555H6.6665V71.1111ZM15.5554 71.1111H19.9998V75.5555H15.5554V71.1111ZM24.4443 71.1111H28.8887V75.5555H24.4443V71.1111ZM33.3332 71.1111H37.7776V75.5555H33.3332V71.1111ZM42.2221 71.1111H46.6665V75.5555H42.2221V71.1111ZM51.111 71.1111H55.5554V75.5555H51.111V71.1111ZM59.9998 71.1111H64.4443V75.5555H59.9998V71.1111ZM68.8887 71.1111H73.3332V75.5555H68.8887V71.1111Z" fill="#F5F8FA"/>
</g>
<defs>
<clipPath id="clip0">
<rect width="80" height="80" fill="white"/>
</clipPath>
</defs>
</svg>
