<svg width="40" height="40" viewBox="0 0 40 40" fill="none" xmlns="http://www.w3.org/2000/svg">
<g clip-path="url(#clip0)">
<path d="M40 24.4444C40 25.6232 39.5317 26.7536 38.6983 27.5871C37.8648 28.4206 36.7343 28.8889 35.5556 28.8889H4.44444C3.2657 28.8889 2.13524 28.4206 1.30175 27.5871C0.468253 26.7536 0 25.6232 0 24.4444V4.44444C0 3.2657 0.468253 2.13524 1.30175 1.30175C2.13524 0.468253 3.2657 0 4.44444 0L35.5556 0C36.7343 0 37.8648 0.468253 38.6983 1.30175C39.5317 2.13524 40 3.2657 40 4.44444V24.4444Z" fill="#CCD6DD"/>
<path d="M4.44434 4.44446H35.5554V24.4445H4.44434V4.44446Z" fill="#5DADEC"/>
<path d="M14.4443 28.8889H25.5554V35.5556H14.4443V28.8889Z" fill="#CCD6DD"/>
<path d="M14.4443 28.8889H25.5554V31.1111H14.4443V28.8889Z" fill="#9AAAB4"/>
<path d="M40 36.6667C40 35.7827 39.6488 34.9348 39.0237 34.3097C38.3986 33.6846 37.5507 33.3334 36.6667 33.3334H3.33333C2.44928 33.3334 1.60143 33.6846 0.976311 34.3097C0.351189 34.9348 0 35.7827 0 36.6667C0 37.5508 0.351189 38.3986 0.976311 39.0237C1.60143 39.6489 2.44928 40 3.33333 40H36.6667C37.5507 40 38.3986 39.6489 39.0237 39.0237C39.6488 38.3986 40 37.5508 40 36.6667Z" fill="#E1E8ED"/>
<path d="M3.3335 35.5555H5.55572V37.7778H3.3335V35.5555ZM7.77794 35.5555H10.0002V37.7778H7.77794V35.5555ZM12.2224 35.5555H14.4446V37.7778H12.2224V35.5555ZM16.6668 35.5555H18.8891V37.7778H16.6668V35.5555ZM21.1113 35.5555H23.3335V37.7778H21.1113V35.5555ZM25.5557 35.5555H27.7779V37.7778H25.5557V35.5555ZM30.0002 35.5555H32.2224V37.7778H30.0002V35.5555ZM34.4446 35.5555H36.6668V37.7778H34.4446V35.5555Z" fill="#F5F8FA"/>
</g>
<defs>
<clipPath id="clip0">
<rect width="40" height="40" fill="white"/>
</clipPath>
</defs>
</svg>
